<svg xmlns="http://www.w3.org/2000/svg" viewBox="0 0 230.795 230.795" width="512" height="512"><path d="M60.357 63.289a7.5 7.5 0 0 0-10.606-.001L2.197 110.836a7.501 7.501 0 0 0-.001 10.607l47.348 47.35a7.476 7.476 0 0 0 5.304 2.197 7.498 7.498 0 0 0 5.304-12.802L18.107 116.14l42.25-42.245a7.5 7.5 0 0 0 0-10.606zm168.241 47.35l-47.355-47.352a7.5 7.5 0 0 0-10.606.001 7.5 7.5 0 0 0 .001 10.607l42.051 42.048-42.249 42.243a7.498 7.498 0 0 0-.001 10.606 7.476 7.476 0 0 0 5.304 2.197 7.477 7.477 0 0 0 5.303-2.196l47.554-47.547a7.497 7.497 0 0 0-.002-10.607zm-72.709-49.337a7.498 7.498 0 0 0-10.498 1.51l-71.994 96.184a7.498 7.498 0 0 0 1.51 10.498 7.46 7.46 0 0 0 4.488 1.496 7.49 7.49 0 0 0 6.01-3.006L157.398 71.8a7.498 7.498 0 0 0-1.509-10.498z" fill="#00ea94"/></svg>